<svg xmlns="http://www.w3.org/2000/svg" viewBox="0 0 200 130" width="200" height="130" role="img" aria-labelledby="t2 d2">
<title id="t2">Canonical correlation of two data blocks</title>
<desc id="d2">A block of dietary exposures and a block of metabolite levels resolved onto a single shared axis, with loadings shown as marginal bars.</desc>
<g class="cca-a" fill="var(--cca-a,#3E7C8C)">
<rect x="14" y="20" width="12" height="12" opacity=".85"/><rect x="27" y="20" width="12" height="12" opacity=".3"/>
<rect x="40" y="20" width="12" height="12" opacity=".6"/><rect x="53" y="20" width="12" height="12" opacity=".2"/>
<rect x="14" y="33" width="12" height="12" opacity=".25"/><rect x="27" y="33" width="12" height="12" opacity=".7"/>
<rect x="40" y="33" width="12" height="12" opacity=".35"/><rect x="53" y="33" width="12" height="12" opacity=".8"/>
<rect x="14" y="46" width="12" height="12" opacity=".6"/><rect x="27" y="46" width="12" height="12" opacity=".2"/>
<rect x="40" y="46" width="12" height="12" opacity=".85"/><rect x="53" y="46" width="12" height="12" opacity=".4"/>
<rect x="14" y="59" width="12" height="12" opacity=".3"/><rect x="27" y="59" width="12" height="12" opacity=".55"/>
<rect x="40" y="59" width="12" height="12" opacity=".25"/><rect x="53" y="59" width="12" height="12" opacity=".7"/>
<rect class="cca-bar" x="14" y="75" width="12" height="11"/><rect class="cca-bar" x="27" y="75" width="12" height="6"/>
<rect class="cca-bar" x="40" y="75" width="12" height="15"/><rect class="cca-bar" x="53" y="75" width="12" height="5"/>
</g>
<circle class="cca-axis" cx="100" cy="46" r="11" fill="none" stroke="currentColor" stroke-width="1.7"/>
<line class="cca-axis" x1="94.5" y1="40.5" x2="105.5" y2="51.5" stroke="currentColor" stroke-width="1.7"/>
<line class="cca-axis" x1="105.5" y1="40.5" x2="94.5" y2="51.5" stroke="currentColor" stroke-width="1.7"/>
<g class="cca-b" fill="var(--cca-b,#6B5B7B)">
<rect x="135" y="20" width="12" height="12" opacity=".3"/><rect x="148" y="20" width="12" height="12" opacity=".75"/>
<rect x="161" y="20" width="12" height="12" opacity=".25"/><rect x="174" y="20" width="12" height="12" opacity=".6"/>
<rect x="135" y="33" width="12" height="12" opacity=".8"/><rect x="148" y="33" width="12" height="12" opacity=".2"/>
<rect x="161" y="33" width="12" height="12" opacity=".55"/><rect x="174" y="33" width="12" height="12" opacity=".35"/>
<rect x="135" y="46" width="12" height="12" opacity=".25"/><rect x="148" y="46" width="12" height="12" opacity=".65"/>
<rect x="161" y="46" width="12" height="12" opacity=".85"/><rect x="174" y="46" width="12" height="12" opacity=".2"/>
<rect x="135" y="59" width="12" height="12" opacity=".7"/><rect x="148" y="59" width="12" height="12" opacity=".3"/>
<rect x="161" y="59" width="12" height="12" opacity=".4"/><rect x="174" y="59" width="12" height="12" opacity=".75"/>
<rect class="cca-bar" x="135" y="75" width="12" height="7"/><rect class="cca-bar" x="148" y="75" width="12" height="13"/>
<rect class="cca-bar" x="161" y="75" width="12" height="5"/><rect class="cca-bar" x="174" y="75" width="12" height="10"/>
</g>
</svg>
